# xmcd
#
# Track frame offsets: 
#        150
#        17547
#        31332
#        52590
#        63640
#        80670
#        98540
#        122200
#        146040
#        162000
#        183742
#        200800
#        221792
#
# Disc length: 3137 seconds
#
# Revision: 1
# Processed by: cddbd v1.4PL0 Copyright (c) Steve Scherf et al.
# Submitted via: ExactAudioCopy v0.90b4
#
DISCID=b70c3f0d
DTITLE=Prairie Oyster - What Is This Country
DYEAR=1998
DGENRE=Country
TTITLE0=Canadian Sunrise
TTITLE1=Why Are We Holding On To Nothing
TTITLE2=Baby Don't Come 'Round Here Anymore
TTITLE3=No Love Have I
TTITLE4=Blue Melody
TTITLE5=Barroom Girls
TTITLE6=Heaven Or Bust
TTITLE7=One Of These Nights
TTITLE8=Keep On Dreaming
TTITLE9=The Vine Is Doing Better Than The Tree
TTITLE10=Change With Time
TTITLE11=Mean Streak
TTITLE12=Canadian Sunset
EXTD=YEAR: 1998 ID3G: 2
EXTT0=
EXTT1=
EXTT2=
EXTT3=
EXTT4=
EXTT5=
EXTT6=
EXTT7=
EXTT8=
EXTT9=
EXTT10=
EXTT11=
EXTT12=
PLAYORDER=
